<svg width="181" height="43" viewBox="0 0 181 43" fill="none" xmlns="http://www.w3.org/2000/svg">
<g clip-path="url(#clip0_197_280)">
<path d="M9.76698 0.0966797C13.3211 0.0966797 15.5397 0.872115 18.846 3.19304L18.0383 7.52255C15.1196 2.80532 10.8601 1.85756 9.06693 1.85756C5.93288 1.85756 4.59741 3.86616 4.59741 5.76167C4.59741 7.65718 6.77832 9.06804 10.4401 10.1989C16.7728 12.1321 20.5046 13.5429 20.5046 17.9425C20.5046 22.0243 15.6851 25.1906 10.8601 25.1906C7.30605 25.1906 3.46657 23.7151 0.61792 21.0011L1.49567 16.2839C3.46657 20.7911 8.04379 23.3597 11.8456 23.3597C14.9796 23.3597 17.0528 21.5665 17.0528 19.0679C17.0528 16.887 15.5397 15.1261 9.62697 13.4352C4.52202 11.9921 1.74338 9.81116 1.74338 6.95713C1.74338 4.28618 4.10199 0.0966797 9.76698 0.0966797Z" fill="#F2F2F2"/>
<path d="M71.258 0.0966936C74.812 0.0966936 77.0306 0.872129 80.337 3.19305L79.5293 7.52256C76.6106 2.80533 72.3511 1.85758 70.5525 1.85758C67.4185 1.85758 66.083 3.86617 66.083 5.76168C66.083 7.65719 68.2639 9.06805 71.9257 10.1989C78.2584 12.1321 81.9902 13.543 81.9902 17.9425C81.9902 22.0243 77.1707 25.1906 72.3457 25.1906C68.7916 25.1906 64.9522 23.7152 62.1035 21.0011L62.9813 16.2839C64.9522 20.7911 69.5294 23.3598 73.3312 23.3598C76.4652 23.3598 78.5384 21.5666 78.5384 19.0679C78.5384 16.887 77.0253 15.1261 71.1126 13.4353C66.0076 11.9921 63.229 9.81118 63.229 6.95714C63.229 4.28081 65.5876 0.0913086 71.2526 0.0913086L71.258 0.0966936Z" fill="#F2F2F2"/>
<path d="M91.7047 18.9978L91.8824 6.29471C91.8824 1.64748 91.0047 0.312012 90.967 0.312012H95.9319C95.9319 0.312012 95.0165 1.64748 95.0165 6.29471L95.0542 11.8897H110.471L110.541 6.29471C110.541 1.64748 109.626 0.312012 109.626 0.312012H114.591C114.591 0.312012 113.675 1.64748 113.675 6.29471L113.745 18.9978C113.745 23.6074 114.801 24.9482 114.801 24.9482H109.454C109.454 24.9482 110.369 23.6128 110.369 18.9978L110.439 13.3652H95.0595L95.0972 18.9978C95.0972 23.6074 96.0127 24.9482 96.0127 24.9482H90.8054C90.8054 24.9482 91.7209 23.6128 91.7209 18.9978H91.7047Z" fill="#F2F2F2"/>
<path d="M37.7042 33.0256H39.0774L42.9223 41.9539H41.1075L40.2729 39.913H36.4011L35.5933 41.9539H33.8163L37.6988 33.0256H37.7042ZM39.7236 38.5506L38.3504 34.9158L36.9503 38.5506H39.7236Z" fill="#F2F2F2"/>
<path d="M54.2253 38.6798C54.2253 39.2183 54.1338 39.703 53.9453 40.1392C53.7622 40.57 53.5091 40.9415 53.186 41.2431C52.8683 41.5446 52.486 41.7816 52.0498 41.9431C51.6136 42.1047 51.1398 42.1908 50.6228 42.1908C50.1058 42.1908 49.6373 42.1101 49.1958 41.9431C48.7596 41.7816 48.3773 41.5446 48.0542 41.2431C47.7311 40.9415 47.478 40.5753 47.2949 40.1392C47.1118 39.7084 47.0256 39.2183 47.0256 38.6798V33.031H48.6142V38.6314C48.6142 38.8522 48.6465 39.0783 48.7165 39.3206C48.7811 39.5576 48.8942 39.7784 49.0504 39.983C49.2065 40.1822 49.4112 40.3492 49.6697 40.4784C49.9281 40.6077 50.2458 40.6723 50.6228 40.6723C50.9997 40.6723 51.3175 40.6077 51.5759 40.4784C51.8344 40.3492 52.039 40.1822 52.1952 39.983C52.3514 39.7838 52.4645 39.563 52.5291 39.3206C52.5937 39.0783 52.6314 38.8522 52.6314 38.6314V33.031H54.22V38.6798H54.2253Z" fill="#F2F2F2"/>
<path d="M61.1611 34.4634H58.4255V33.0256H65.4906V34.4634H62.7551V41.9539H61.1665V34.4634H61.1611Z" fill="#F2F2F2"/>
<path d="M69.244 37.5329C69.244 36.8167 69.3625 36.1706 69.5994 35.5836C69.8364 34.9966 70.1595 34.5012 70.5795 34.0866C70.9941 33.6773 71.4895 33.3596 72.0657 33.1334C72.6419 32.9126 73.272 32.7996 73.9612 32.7996C74.6613 32.7888 75.2967 32.8965 75.8783 33.1065C76.4599 33.3165 76.9607 33.6342 77.3807 34.0435C77.8007 34.4581 78.1292 34.9536 78.3662 35.5297C78.6031 36.1113 78.7216 36.7575 78.7216 37.4737C78.7216 38.1899 78.6031 38.8038 78.3662 39.38C78.1292 39.9508 77.8007 40.4462 77.3807 40.8555C76.9607 41.2701 76.4599 41.5878 75.8783 41.8194C75.2967 42.0509 74.6613 42.1694 73.9612 42.1802C73.272 42.1802 72.6365 42.0671 72.0657 41.8463C71.4895 41.6255 70.9941 41.3078 70.5795 40.8986C70.1648 40.4893 69.8364 39.9993 69.5994 39.4285C69.3625 38.8577 69.244 38.2222 69.244 37.5222V37.5329ZM70.908 37.4306C70.908 37.9099 70.9834 38.3515 71.1288 38.7553C71.2742 39.1592 71.4842 39.5092 71.7534 39.8C72.0227 40.0962 72.3458 40.3277 72.7173 40.4947C73.0889 40.6616 73.5089 40.7478 73.972 40.7478C74.4351 40.7478 74.8552 40.6616 75.2321 40.4947C75.609 40.3277 75.9321 40.0962 76.2014 39.8C76.4706 39.5039 76.6807 39.1592 76.8261 38.7553C76.9714 38.3515 77.0468 37.9099 77.0468 37.4306C77.0468 36.9837 76.9714 36.569 76.8261 36.1813C76.6807 35.7936 76.4706 35.4544 76.2014 35.1636C75.9321 34.8728 75.609 34.6466 75.2321 34.4851C74.8552 34.3235 74.4351 34.2374 73.972 34.2374C73.5089 34.2374 73.0889 34.3181 72.7173 34.4851C72.3458 34.6466 72.0227 34.8782 71.7534 35.1636C71.4842 35.4544 71.2742 35.7936 71.1288 36.1813C70.9834 36.569 70.908 36.9837 70.908 37.4306Z" fill="#F2F2F2"/>
<path d="M83.4226 33.0256H85.8459L88.2314 39.283L90.6385 33.0256H93.0348V41.9539H91.5216V34.5388H91.4947L88.7807 41.9539H87.6714L84.9573 34.5388H84.9304V41.9539H83.4172V33.0256H83.4226Z" fill="#F2F2F2"/>
<path d="M97.7358 37.5329C97.7358 36.8167 97.8543 36.1706 98.0912 35.5836C98.3282 34.9966 98.6513 34.5012 99.0713 34.0866C99.486 33.6773 99.9814 33.3596 100.558 33.1334C101.134 32.9126 101.764 32.7996 102.453 32.7996C103.153 32.7888 103.789 32.8965 104.37 33.1065C104.952 33.3165 105.452 33.6342 105.873 34.0435C106.293 34.4581 106.621 34.9536 106.858 35.5297C107.095 36.1113 107.213 36.7575 107.213 37.4737C107.213 38.1899 107.095 38.8038 106.858 39.38C106.621 39.9508 106.293 40.4462 105.873 40.8555C105.452 41.2701 104.952 41.5878 104.37 41.8194C103.789 42.0509 103.153 42.1694 102.453 42.1802C101.764 42.1802 101.128 42.0671 100.558 41.8463C99.9814 41.6255 99.486 41.3078 99.0713 40.8986C98.6567 40.4893 98.3282 39.9993 98.0912 39.4285C97.8543 38.8577 97.7358 38.2222 97.7358 37.5222V37.5329ZM99.3998 37.4306C99.3998 37.9099 99.4752 38.3515 99.6206 38.7553C99.766 39.1592 99.976 39.5092 100.245 39.8C100.514 40.0962 100.838 40.3277 101.209 40.4947C101.581 40.6616 102.001 40.7478 102.464 40.7478C102.927 40.7478 103.347 40.6616 103.724 40.4947C104.101 40.3277 104.424 40.0962 104.693 39.8C104.962 39.5039 105.172 39.1592 105.318 38.7553C105.463 38.3515 105.539 37.9099 105.539 37.4306C105.539 36.9837 105.463 36.569 105.318 36.1813C105.172 35.7936 104.962 35.4544 104.693 35.1636C104.424 34.8728 104.101 34.6466 103.724 34.4851C103.347 34.3235 102.927 34.2374 102.464 34.2374C102.001 34.2374 101.581 34.3181 101.209 34.4851C100.838 34.6466 100.514 34.8782 100.245 35.1636C99.976 35.4544 99.766 35.7936 99.6206 36.1813C99.4752 36.569 99.3998 36.9837 99.3998 37.4306Z" fill="#F2F2F2"/>
<path d="M113.702 34.4634H110.967V33.0256H118.032V34.4634H115.296V41.9539H113.708V34.4634H113.702Z" fill="#F2F2F2"/>
<path d="M122.232 33.0256H123.821V41.9539H122.232V33.0256Z" fill="#F2F2F2"/>
<path d="M127.892 33.0256H129.723L132.157 39.773L134.666 33.0256H136.384L132.776 41.9539H131.403L127.897 33.0256H127.892Z" fill="#F2F2F2"/>
<path d="M140.493 33.0256H146.405V34.4634H142.081V36.6605H146.179V38.0983H142.081V40.5215H146.637V41.9593H140.493V33.031V33.0256Z" fill="#F2F2F2"/>
<path d="M53.7999 24.9429C52.4967 23.6397 51.2313 21.3188 50.4935 19.8379L42.7176 3.26299C42.1522 2.02983 41.7699 1.15208 41.4845 0.344335L37.8227 0.306641C37.8227 0.306641 39.4274 2.26138 39.0235 3.33299L30.5045 20.4357C29.8368 21.6311 28.8136 23.462 27.8982 24.9429H32.19C31.91 23.182 32.68 21.0388 32.8954 20.4357L33.6763 18.6748L34.8717 15.9338L39.7613 4.77616L40.8167 7.13478L44.7962 15.9338L45.4586 17.4147H45.4693L46.7725 20.371C47.2679 21.6365 48.0057 23.9951 47.6179 24.9483H53.8107L53.7999 24.9429Z" fill="#F2F2F2"/>
<path d="M44.7854 11.8896H35.4479V13.3651H44.7854V11.8896Z" fill="#F2F2F2"/>
<path d="M148.091 24.9429C146.787 23.6397 145.522 21.3188 144.784 19.8379L137.008 3.26299C136.443 2.02983 136.061 1.15208 135.775 0.344335L132.113 0.306641C132.113 0.306641 133.718 2.26138 133.314 3.33299L124.795 20.4357C124.128 21.6311 123.104 23.462 122.189 24.9429H126.481C126.201 23.182 126.971 21.0388 127.186 20.4357L127.967 18.6748L129.163 15.9338L134.052 4.77616L135.108 7.13478L139.087 15.9338L139.749 17.4147H139.76L141.063 20.371C141.559 21.6365 142.296 23.9951 141.909 24.9483H148.101L148.091 24.9429Z" fill="#F2F2F2"/>
<path d="M139.076 11.8896H129.739V13.3651H139.076V11.8896Z" fill="#F2F2F2"/>
<path d="M180.896 24.9429C179.593 23.6397 178.327 21.3188 177.589 19.8379L169.814 3.26299C169.248 2.02983 168.866 1.15208 168.58 0.344335L164.919 0.306641C164.919 0.306641 166.523 2.26138 166.119 3.33299L157.6 20.4357C156.933 21.6311 155.91 23.462 154.994 24.9429H159.286C159.006 23.182 159.776 21.0388 159.991 20.4357L160.772 18.6748L161.968 15.9338L166.857 4.77616L167.913 7.13478L171.892 15.9338L172.555 17.4147H172.565L173.868 20.371C174.364 21.6365 175.102 23.9951 174.714 24.9483H180.907L180.896 24.9429Z" fill="#F2F2F2"/>
<path d="M171.881 11.8896H162.544V13.3651H171.881V11.8896Z" fill="#F2F2F2"/>
</g>
<defs>
<clipPath id="clip0_197_280">
<rect width="180.278" height="42.0889" fill="white" transform="translate(0.61792 0.0966797)"/>
</clipPath>
</defs>
</svg>
