<svg width="129" height="31" viewBox="0 0 129 31" fill="none" xmlns="http://www.w3.org/2000/svg">
<g clip-path="url(#clip0_197_430)">
<path d="M6.8047 0.0820312C9.34172 0.0820312 10.9254 0.635562 13.2856 2.29231L12.709 5.38286C10.6256 2.01555 7.58503 1.33901 6.30499 1.33901C4.0678 1.33901 3.11449 2.77281 3.11449 4.12588C3.11449 5.47896 4.6713 6.48608 7.2852 7.29331C11.8057 8.67329 14.4696 9.68041 14.4696 12.8209C14.4696 15.7347 11.0292 17.9949 7.58503 17.9949C5.04801 17.9949 2.30726 16.9417 0.273804 15.0043L0.90037 11.637C2.30726 14.8544 5.57463 16.688 8.28847 16.688C10.5257 16.688 12.0056 15.4079 12.0056 13.6243C12.0056 12.0675 10.9254 10.8105 6.70476 9.60353C3.06068 8.57335 1.07719 7.01654 1.07719 4.97924C1.07719 3.07264 2.76085 0.0820312 6.8047 0.0820312Z" fill="#F2F2F2"/>
<path d="M50.6989 0.081969C53.2359 0.081969 54.8197 0.6355 57.1798 2.29225L56.6033 5.3828C54.5198 2.01548 51.4792 1.33895 50.1954 1.33895C47.9582 1.33895 47.0049 2.77274 47.0049 4.12582C47.0049 5.4789 48.5617 6.48602 51.1756 7.29325C55.6961 8.67323 58.3599 9.68035 58.3599 12.8209C58.3599 15.7346 54.9196 17.9948 51.4754 17.9948C48.9384 17.9948 46.1976 16.9416 44.1642 15.0042L44.7907 11.6369C46.1976 14.8543 49.465 16.6879 52.1789 16.6879C54.416 16.6879 55.896 15.4079 55.896 13.6243C55.896 12.0675 54.8158 10.8105 50.5951 9.60347C46.9511 8.57329 44.9676 7.01648 44.9676 4.97918C44.9676 3.06873 46.6512 0.078125 50.6951 0.078125L50.6989 0.081969Z" fill="#F2F2F2"/>
<path d="M65.2945 13.5744L65.4213 4.50649C65.4213 1.18914 64.7948 0.23584 64.7678 0.23584H68.312C68.312 0.23584 67.6585 1.18914 67.6585 4.50649L67.6854 8.50037H78.6907L78.7407 4.50649C78.7407 1.18914 78.0872 0.23584 78.0872 0.23584H81.6313C81.6313 0.23584 80.9778 1.18914 80.9778 4.50649L81.0278 13.5744C81.0278 16.8648 81.7812 17.822 81.7812 17.822H77.9642C77.9642 17.822 78.6177 16.8687 78.6177 13.5744L78.6676 9.55361H67.6893L67.7162 13.5744C67.7162 16.8648 68.3696 17.822 68.3696 17.822H64.6525C64.6525 17.822 65.306 16.8687 65.306 13.5744H65.2945Z" fill="#F2F2F2"/>
<path d="M26.7471 23.5879H27.7274L30.4719 29.9612H29.1765L28.5807 28.5043H25.8169L25.2403 29.9612H23.9718L26.7433 23.5879H26.7471ZM28.1886 27.5318L27.2084 24.9371L26.209 27.5318H28.1886Z" fill="#F2F2F2"/>
<path d="M38.5404 27.6241C38.5404 28.0085 38.475 28.3545 38.3405 28.6658C38.2098 28.9733 38.0291 29.2386 37.7985 29.4538C37.5717 29.6691 37.2988 29.8382 36.9874 29.9536C36.6761 30.0689 36.3378 30.1304 35.9688 30.1304C35.5997 30.1304 35.2653 30.0727 34.9501 29.9536C34.6388 29.8382 34.3658 29.6691 34.1352 29.4538C33.9046 29.2386 33.7239 28.9772 33.5932 28.6658C33.4625 28.3583 33.401 28.0085 33.401 27.6241V23.5918H34.535V27.5895C34.535 27.7471 34.558 27.9086 34.608 28.0815C34.6541 28.2507 34.7349 28.4083 34.8463 28.5544C34.9578 28.6966 35.1039 28.8157 35.2884 28.908C35.4729 29.0003 35.6997 29.0464 35.9688 29.0464C36.2378 29.0464 36.4646 29.0003 36.6492 28.908C36.8337 28.8157 36.9797 28.6966 37.0912 28.5544C37.2027 28.4121 37.2834 28.2545 37.3295 28.0815C37.3757 27.9086 37.4026 27.7471 37.4026 27.5895V23.5918H38.5365V27.6241H38.5404Z" fill="#F2F2F2"/>
<path d="M43.4914 24.6142H41.5387V23.5879H46.582V24.6142H44.6292V29.9612H43.4953V24.6142H43.4914Z" fill="#F2F2F2"/>
<path d="M49.2612 26.8054C49.2612 26.2941 49.3458 25.8329 49.5149 25.4139C49.6841 24.9949 49.9147 24.6412 50.2145 24.3453C50.5105 24.0531 50.8642 23.8263 51.2755 23.6649C51.6868 23.5073 52.1365 23.4266 52.6285 23.4266C53.1283 23.4189 53.5818 23.4957 53.997 23.6457C54.4121 23.7956 54.7696 24.0224 55.0695 24.3145C55.3693 24.6105 55.6038 24.9641 55.7729 25.3754C55.942 25.7906 56.0266 26.2519 56.0266 26.7631C56.0266 27.2744 55.942 27.7126 55.7729 28.1239C55.6038 28.5313 55.3693 28.885 55.0695 29.1771C54.7696 29.4731 54.4121 29.6999 53.997 29.8652C53.5818 30.0305 53.1283 30.1151 52.6285 30.1227C52.1365 30.1227 51.6829 30.042 51.2755 29.8844C50.8642 29.7268 50.5105 29.5 50.2145 29.2079C49.9185 28.9157 49.6841 28.5659 49.5149 28.1585C49.3458 27.751 49.2612 27.2974 49.2612 26.7977V26.8054ZM50.449 26.7324C50.449 27.0745 50.5028 27.3897 50.6066 27.678C50.7104 27.9663 50.8603 28.2161 51.0525 28.4237C51.2447 28.6351 51.4754 28.8004 51.7406 28.9196C52.0058 29.0387 52.3057 29.1002 52.6362 29.1002C52.9668 29.1002 53.2666 29.0387 53.5357 28.9196C53.8048 28.8004 54.0354 28.6351 54.2276 28.4237C54.4198 28.2123 54.5697 27.9663 54.6735 27.678C54.7773 27.3897 54.8311 27.0745 54.8311 26.7324C54.8311 26.4133 54.7773 26.1173 54.6735 25.8406C54.5697 25.5638 54.4198 25.3216 54.2276 25.1141C54.0354 24.9065 53.8048 24.745 53.5357 24.6297C53.2666 24.5144 52.9668 24.4529 52.6362 24.4529C52.3057 24.4529 52.0058 24.5105 51.7406 24.6297C51.4754 24.745 51.2447 24.9103 51.0525 25.1141C50.8603 25.3216 50.7104 25.5638 50.6066 25.8406C50.5028 26.1173 50.449 26.4133 50.449 26.7324Z" fill="#F2F2F2"/>
<path d="M59.3824 23.5879H61.1122L62.815 28.0546L64.5333 23.5879H66.2439V29.9612H65.1637V24.668H65.1445L63.2071 29.9612H62.4153L60.4779 24.668H60.4587V29.9612H59.3785V23.5879H59.3824Z" fill="#F2F2F2"/>
<path d="M69.5997 26.8054C69.5997 26.2941 69.6842 25.8329 69.8534 25.4139C70.0225 24.9949 70.2531 24.6412 70.553 24.3453C70.849 24.0531 71.2026 23.8263 71.6139 23.6649C72.0252 23.5073 72.475 23.4266 72.967 23.4266C73.4667 23.4189 73.9203 23.4957 74.3354 23.6457C74.7506 23.7956 75.1081 24.0224 75.4079 24.3145C75.7077 24.6105 75.9422 24.9641 76.1113 25.3754C76.2805 25.7906 76.365 26.2519 76.365 26.7631C76.365 27.2744 76.2805 27.7126 76.1113 28.1239C75.9422 28.5313 75.7077 28.885 75.4079 29.1771C75.1081 29.4731 74.7506 29.6999 74.3354 29.8652C73.9203 30.0305 73.4667 30.1151 72.967 30.1227C72.475 30.1227 72.0214 30.042 71.6139 29.8844C71.2026 29.7268 70.849 29.5 70.553 29.2079C70.257 28.9157 70.0225 28.5659 69.8534 28.1585C69.6842 27.751 69.5997 27.2974 69.5997 26.7977V26.8054ZM70.7875 26.7324C70.7875 27.0745 70.8413 27.3897 70.9451 27.678C71.0488 27.9663 71.1988 28.2161 71.391 28.4237C71.5832 28.6351 71.8138 28.8004 72.079 28.9196C72.3443 29.0387 72.6441 29.1002 72.9747 29.1002C73.3053 29.1002 73.6051 29.0387 73.8742 28.9196C74.1432 28.8004 74.3739 28.6351 74.5661 28.4237C74.7583 28.2123 74.9082 27.9663 75.012 27.678C75.1158 27.3897 75.1696 27.0745 75.1696 26.7324C75.1696 26.4133 75.1158 26.1173 75.012 25.8406C74.9082 25.5638 74.7583 25.3216 74.5661 25.1141C74.3739 24.9065 74.1432 24.745 73.8742 24.6297C73.6051 24.5144 73.3053 24.4529 72.9747 24.4529C72.6441 24.4529 72.3443 24.5105 72.079 24.6297C71.8138 24.745 71.5832 24.9103 71.391 25.1141C71.1988 25.3216 71.0488 25.5638 70.9451 25.8406C70.8413 26.1173 70.7875 26.4133 70.7875 26.7324Z" fill="#F2F2F2"/>
<path d="M80.997 24.6142H79.0443V23.5879H84.0876V24.6142H82.1349V29.9612H81.0009V24.6142H80.997Z" fill="#F2F2F2"/>
<path d="M87.0859 23.5879H88.2198V29.9612H87.0859V23.5879Z" fill="#F2F2F2"/>
<path d="M91.1259 23.5879H92.4328L94.1703 28.4044L95.9616 23.5879H97.1878L94.6123 29.9612H93.6321L91.1297 23.5879H91.1259Z" fill="#F2F2F2"/>
<path d="M100.121 23.5879H104.341V24.6142H101.255V26.1826H104.18V27.2089H101.255V28.9387H104.507V29.965H100.121V23.5917V23.5879Z" fill="#F2F2F2"/>
<path d="M38.2368 17.8181C37.3065 16.8878 36.4032 15.2311 35.8766 14.174L30.3259 2.34227C29.9223 1.462 29.6494 0.835436 29.4456 0.258841L26.8317 0.231934C26.8317 0.231934 27.9772 1.62729 27.6889 2.39224L21.6078 14.6007C21.1311 15.454 20.4008 16.761 19.7473 17.8181H22.811C22.6111 16.5611 23.1608 15.0312 23.3145 14.6007L23.8719 13.3437L24.7253 11.3871L28.2156 3.42242L28.969 5.10608L31.8097 11.3871L32.2825 12.4442H32.2902L33.2204 14.5545C33.5741 15.4579 34.1007 17.1415 33.8239 17.8219H38.2445L38.2368 17.8181Z" fill="#F2F2F2"/>
<path d="M31.802 8.50024H25.1366V9.55349H31.802V8.50024Z" fill="#F2F2F2"/>
<path d="M105.545 17.8181C104.614 16.8878 103.711 15.2311 103.184 14.174L97.6338 2.34227C97.2302 1.462 96.9572 0.835436 96.7535 0.258841L94.1396 0.231934C94.1396 0.231934 95.2851 1.62729 94.9968 2.39224L88.9157 14.6007C88.439 15.454 87.7086 16.761 87.0552 17.8181H90.1188C89.9189 16.5611 90.4686 15.0312 90.6224 14.6007L91.1798 13.3437L92.0331 11.3871L95.5234 3.42242L96.2769 5.10608L99.1175 11.3871L99.5903 12.4442H99.598L100.528 14.5545C100.882 15.4579 101.409 17.1415 101.132 17.8219H105.552L105.545 17.8181Z" fill="#F2F2F2"/>
<path d="M99.1098 8.50024H92.4444V9.55349H99.1098V8.50024Z" fill="#F2F2F2"/>
<path d="M128.962 17.8181C128.032 16.8878 127.129 15.2311 126.602 14.174L121.051 2.34227C120.648 1.462 120.375 0.835436 120.171 0.258841L117.557 0.231934C117.557 0.231934 118.703 1.62729 118.414 2.39224L112.333 14.6007C111.856 15.454 111.126 16.761 110.473 17.8181H113.536C113.336 16.5611 113.886 15.0312 114.04 14.6007L114.597 13.3437L115.451 11.3871L118.941 3.42242L119.694 5.10608L122.535 11.3871L123.008 12.4442H123.015L123.946 14.5545C124.299 15.4579 124.826 17.1415 124.549 17.8219H128.97L128.962 17.8181Z" fill="#F2F2F2"/>
<path d="M122.527 8.50024H115.862V9.55349H122.527V8.50024Z" fill="#F2F2F2"/>
</g>
<defs>
<clipPath id="clip0_197_430">
<rect width="128.688" height="30.0444" fill="white" transform="translate(0.273804 0.0820312)"/>
</clipPath>
</defs>
</svg>
